<svg width="360" height="22" viewBox="0 0 360 22" fill="none" xmlns="http://www.w3.org/2000/svg">
<line y1="11" x2="360" y2="11" stroke="#CAC4D0"/>
<rect width="22" height="16" transform="translate(169 3)" fill="white"/>
<path d="M173.539 11.9004V11.7656C173.539 11.3086 173.605 10.8848 173.738 10.4941C173.871 10.0996 174.062 9.75781 174.312 9.46875C174.562 9.17578 174.865 8.94922 175.221 8.78906C175.576 8.625 175.975 8.54297 176.416 8.54297C176.861 8.54297 177.262 8.625 177.617 8.78906C177.977 8.94922 178.281 9.17578 178.531 9.46875C178.785 9.75781 178.979 10.0996 179.111 10.4941C179.244 10.8848 179.311 11.3086 179.311 11.7656V11.9004C179.311 12.3574 179.244 12.7812 179.111 13.1719C178.979 13.5625 178.785 13.9043 178.531 14.1973C178.281 14.4863 177.979 14.7129 177.623 14.877C177.271 15.0371 176.873 15.1172 176.428 15.1172C175.982 15.1172 175.582 15.0371 175.227 14.877C174.871 14.7129 174.566 14.4863 174.312 14.1973C174.062 13.9043 173.871 13.5625 173.738 13.1719C173.605 12.7812 173.539 12.3574 173.539 11.9004ZM174.623 11.7656V11.9004C174.623 12.2168 174.66 12.5156 174.734 12.7969C174.809 13.0742 174.92 13.3203 175.068 13.5352C175.221 13.75 175.41 13.9199 175.637 14.0449C175.863 14.166 176.127 14.2266 176.428 14.2266C176.725 14.2266 176.984 14.166 177.207 14.0449C177.434 13.9199 177.621 13.75 177.77 13.5352C177.918 13.3203 178.029 13.0742 178.104 12.7969C178.182 12.5156 178.221 12.2168 178.221 11.9004V11.7656C178.221 11.4531 178.182 11.1582 178.104 10.8809C178.029 10.5996 177.916 10.3516 177.764 10.1367C177.615 9.91797 177.428 9.74609 177.201 9.62109C176.979 9.49609 176.717 9.43359 176.416 9.43359C176.119 9.43359 175.857 9.49609 175.631 9.62109C175.408 9.74609 175.221 9.91797 175.068 10.1367C174.92 10.3516 174.809 10.5996 174.734 10.8809C174.66 11.1582 174.623 11.4531 174.623 11.7656ZM184.549 13.5352V8.66016H185.639V15H184.602L184.549 13.5352ZM184.754 12.1992L185.205 12.1875C185.205 12.6094 185.16 13 185.07 13.3594C184.984 13.7148 184.844 14.0234 184.648 14.2852C184.453 14.5469 184.197 14.752 183.881 14.9004C183.564 15.0449 183.18 15.1172 182.727 15.1172C182.418 15.1172 182.135 15.0723 181.877 14.9824C181.623 14.8926 181.404 14.7539 181.221 14.5664C181.037 14.3789 180.895 14.1348 180.793 13.834C180.695 13.5332 180.646 13.1719 180.646 12.75V8.66016H181.73V12.7617C181.73 13.0469 181.762 13.2832 181.824 13.4707C181.891 13.6543 181.979 13.8008 182.088 13.9102C182.201 14.0156 182.326 14.0898 182.463 14.1328C182.604 14.1758 182.748 14.1973 182.896 14.1973C183.357 14.1973 183.723 14.1094 183.992 13.9336C184.262 13.7539 184.455 13.5137 184.572 13.2129C184.693 12.9082 184.754 12.5703 184.754 12.1992Z" fill="#49454F"/>
</svg>
