<svg width="85" height="57" viewBox="0 0 85 57" fill="none" xmlns="http://www.w3.org/2000/svg">
<path d="M7.41386 41.678V9.91464H0V0.634277H25.5366V9.91464H18.1228V41.678H7.41386Z" fill="#293495" fill-opacity="0.88"/>
<path d="M42.1401 41.678H32.1282L23.2886 0.634277H33.8391L35.5183 14.7825L38.0213 28.5104L41.2213 14.7825L42.045 11.0353H51.3309L52.247 14.7825L55.0351 28.5104L56.7777 14.7825L58.647 0.634277H68.2787L60.1044 41.678H49.3005L45.4035 25.1835L42.1401 41.678Z" fill="#293495" fill-opacity="0.88"/>
<path d="M8.58479 51.1395V43.4761H6.22317V42.5078H12.0091V43.4761H9.64752V51.1395H8.58479ZM16.2554 51.2576C15.4525 51.2576 14.8385 51.0372 14.4134 50.5964C13.9883 50.1476 13.7757 49.5415 13.7757 48.7779V42.5196H14.8385V48.7779C14.8385 49.2502 14.9526 49.6242 15.1809 49.8997C15.417 50.1752 15.7752 50.313 16.2554 50.313C16.7277 50.313 17.082 50.1752 17.3181 49.8997C17.5543 49.6242 17.6724 49.2502 17.6724 48.7779V42.5196H18.7351V48.7779C18.7351 49.5494 18.5226 50.1555 18.0975 50.5964C17.6803 51.0372 17.0662 51.2576 16.2554 51.2576ZM20.9386 51.1395V42.5196H23.6072C24.1189 42.5196 24.5676 42.6259 24.9534 42.8385C25.3391 43.0431 25.6382 43.3305 25.8508 43.7004C26.0633 44.0704 26.1696 44.5034 26.1696 44.9993C26.1696 45.5819 26.0161 46.0817 25.7091 46.499C25.4099 46.9162 25.0006 47.2035 24.481 47.3609L26.2877 51.1395H25.036L23.3829 47.479H22.0013V51.1395H20.9386ZM22.0013 46.5226H23.6072C24.0481 46.5226 24.4023 46.3848 24.67 46.1093C24.9376 45.8259 25.0714 45.4559 25.0714 44.9993C25.0714 44.5349 24.9376 44.1649 24.67 43.8894C24.4023 43.6138 24.0481 43.4761 23.6072 43.4761H22.0013V46.5226ZM28.2314 51.1395V50.1713H29.9908V43.4879H28.2314V42.5196H32.8365V43.4879H31.0771V50.1713H32.8365V51.1395H28.2314ZM37.7205 51.2576C37.1537 51.2576 36.6656 51.1631 36.2563 50.9742C35.8548 50.7853 35.5438 50.5137 35.3234 50.1595C35.103 49.8052 34.9889 49.3841 34.981 48.896H36.0437C36.0437 49.329 36.1894 49.6714 36.4806 49.9233C36.7798 50.1752 37.193 50.3012 37.7205 50.3012C38.2164 50.3012 38.6021 50.1791 38.8777 49.9351C39.161 49.6911 39.3027 49.3526 39.3027 48.9196C39.3027 48.5732 39.2083 48.2702 39.0194 48.0104C38.8383 47.7506 38.5746 47.5696 38.2282 47.4672L37.0592 47.1012C36.4688 46.9201 36.0122 46.617 35.6895 46.1919C35.3746 45.7669 35.2172 45.267 35.2172 44.6923C35.2172 44.2279 35.3195 43.8264 35.5242 43.4879C35.7367 43.1415 36.0319 42.8739 36.4098 42.6849C36.7876 42.4881 37.2324 42.3897 37.7441 42.3897C38.4998 42.3897 39.1059 42.6023 39.5625 43.0274C40.0191 43.4446 40.2513 44.0035 40.2592 44.7041H39.1965C39.1965 44.279 39.0666 43.9484 38.8068 43.7123C38.5549 43.4682 38.1967 43.3462 37.7323 43.3462C37.2757 43.3462 36.9175 43.4564 36.6577 43.6768C36.4058 43.8972 36.2799 44.2043 36.2799 44.5979C36.2799 44.9521 36.3743 45.2591 36.5633 45.5189C36.7522 45.7787 37.0238 45.9637 37.378 46.0739L38.5588 46.4517C39.1335 46.6328 39.5783 46.9398 39.8932 47.3728C40.208 47.8057 40.3655 48.3135 40.3655 48.896C40.3655 49.3683 40.2553 49.7816 40.0348 50.1358C39.8144 50.4901 39.5035 50.7656 39.102 50.9624C38.7084 51.1592 38.2479 51.2576 37.7205 51.2576ZM42.1675 51.1395V42.5196H43.5608L44.4583 45.3063C44.5449 45.5582 44.6236 45.8102 44.6944 46.0621C44.7653 46.3061 44.8164 46.495 44.8479 46.6288C44.8873 46.495 44.9385 46.3061 45.0014 46.0621C45.0644 45.8102 45.1353 45.5543 45.214 45.2945L46.0642 42.5196H47.4575V51.1395H46.4184V48.0104C46.4184 47.664 46.4302 47.2704 46.4538 46.8296C46.4774 46.3887 46.5089 45.94 46.5483 45.4835C46.5876 45.019 46.627 44.5782 46.6664 44.161C46.7136 43.7359 46.753 43.3659 46.7844 43.051L45.3911 47.3609H44.2693L42.8642 43.051C42.9035 43.358 42.9429 43.7162 42.9823 44.1255C43.0216 44.527 43.057 44.956 43.0885 45.4126C43.12 45.8613 43.1476 46.31 43.1712 46.7587C43.1948 47.2074 43.2066 47.6247 43.2066 48.0104V51.1395H42.1675ZM51.9518 51.2576C51.4322 51.2576 50.9835 51.1592 50.6057 50.9624C50.2357 50.7656 49.9483 50.4822 49.7437 50.1122C49.5469 49.7344 49.4485 49.2896 49.4485 48.7779V44.8812C49.4485 44.3617 49.5469 43.9169 49.7437 43.5469C49.9483 43.177 50.2357 42.8936 50.6057 42.6968C50.9835 42.5 51.4322 42.4016 51.9518 42.4016C52.4713 42.4016 52.9161 42.5 53.2861 42.6968C53.6639 42.8936 53.9513 43.177 54.1481 43.5469C54.3527 43.9169 54.4551 44.3578 54.4551 44.8694V48.7779C54.4551 49.2896 54.3527 49.7344 54.1481 50.1122C53.9513 50.4822 53.6639 50.7656 53.2861 50.9624C52.9161 51.1592 52.4713 51.2576 51.9518 51.2576ZM51.9518 50.3012C52.4162 50.3012 52.7705 50.1713 53.0145 49.9115C53.2664 49.6438 53.3924 49.266 53.3924 48.7779V44.8812C53.3924 44.3932 53.2664 44.0193 53.0145 43.7595C52.7705 43.4918 52.4162 43.358 51.9518 43.358C51.4952 43.358 51.141 43.4918 50.889 43.7595C50.6371 44.0193 50.5112 44.3932 50.5112 44.8812V48.7779C50.5112 49.266 50.6371 49.6438 50.889 49.9115C51.141 50.1713 51.4952 50.3012 51.9518 50.3012ZM63.975 51.1395L62.9831 42.5196H63.9986L64.648 48.896C64.6638 49.0692 64.6795 49.2502 64.6953 49.4392C64.711 49.6202 64.7228 49.7934 64.7307 49.9587C64.7464 50.124 64.7543 50.2618 64.7543 50.372C64.77 50.2618 64.7819 50.124 64.7897 49.9587C64.8055 49.7934 64.8212 49.6202 64.837 49.4392C64.8606 49.2502 64.8842 49.0692 64.9078 48.896L65.7108 42.5196H66.8089L67.541 48.896C67.5646 49.0692 67.5843 49.2502 67.6001 49.4392C67.6237 49.6202 67.6433 49.7934 67.6591 49.9587C67.6827 50.124 67.6985 50.2618 67.7063 50.372C67.7142 50.2618 67.7221 50.124 67.7299 49.9587C67.7457 49.7934 67.7614 49.6202 67.7772 49.4392C67.8008 49.2502 67.8205 49.0692 67.8362 48.896L68.5093 42.5196H69.4775L68.462 51.1395H67.1277L66.3956 44.6451C66.3799 44.464 66.3602 44.2869 66.3366 44.1137C66.3208 43.9405 66.3051 43.7792 66.2894 43.6296C66.2736 43.48 66.2618 43.358 66.2539 43.2635C66.2461 43.358 66.2303 43.48 66.2067 43.6296C66.191 43.7792 66.1752 43.9405 66.1595 44.1137C66.1437 44.2869 66.124 44.464 66.1004 44.6451L65.3093 51.1395H63.975ZM71.008 51.1395V42.5196H75.9674V43.4879H72.0589V46.1565H75.5541V47.113H72.0589V50.1713H75.9674V51.1395H71.008ZM78.0646 51.1395V42.5196H80.5089C81.2961 42.5196 81.9101 42.7164 82.3509 43.11C82.7996 43.5036 83.024 44.0507 83.024 44.7514C83.024 45.145 82.9413 45.4874 82.776 45.7787C82.6107 46.0699 82.3745 46.2943 82.0675 46.4517C81.7684 46.6092 81.4063 46.6839 80.9812 46.6761V46.499C81.4378 46.4911 81.8314 46.5777 82.162 46.7587C82.5005 46.9398 82.7603 47.1996 82.9413 47.5381C83.1302 47.8766 83.2247 48.278 83.2247 48.7425C83.2247 49.2306 83.1224 49.6556 82.9177 50.0178C82.713 50.3799 82.4218 50.6593 82.0439 50.8561C81.666 51.0451 81.2134 51.1395 80.686 51.1395H78.0646ZM79.1037 50.1831H80.5679C81.0638 50.1831 81.4535 50.0532 81.7369 49.7934C82.0282 49.5258 82.1738 49.1636 82.1738 48.7071C82.1738 48.2347 82.0282 47.8529 81.7369 47.5617C81.4535 47.2625 81.0638 47.113 80.5679 47.113H79.1037V50.1831ZM79.1037 46.1919H80.497C80.9536 46.1919 81.3118 46.0699 81.5716 45.8259C81.8392 45.5819 81.9731 45.2512 81.9731 44.834C81.9731 44.4168 81.8432 44.0862 81.5834 43.8421C81.3236 43.5981 80.9654 43.4761 80.5089 43.4761H79.1037V46.1919Z" fill="#293495" fill-opacity="0.88"/>
</svg>
