<svg width="76" height="76" viewBox="0 0 76 76" fill="none" xmlns="http://www.w3.org/2000/svg">
<rect width="76" height="76" rx="38" fill="#293495" fill-opacity="0.88"/>
<path d="M38 32.2C35.6625 32.2 33.6615 31.3579 31.9969 29.6738C30.3323 27.9896 29.5 25.965 29.5 23.6C29.5 21.235 30.3323 19.2104 31.9969 17.5263C33.6615 15.8421 35.6625 15 38 15C40.3375 15 42.3385 15.8421 44.0031 17.5263C45.6677 19.2104 46.5 21.235 46.5 23.6C46.5 25.965 45.6677 27.9896 44.0031 29.6738C42.3385 31.3579 40.3375 32.2 38 32.2ZM38 27.9C39.1688 27.9 40.1693 27.479 41.0016 26.6369C41.8339 25.7948 42.25 24.7825 42.25 23.6C42.25 22.4175 41.8339 21.4052 41.0016 20.5631C40.1693 19.721 39.1688 19.3 38 19.3C36.8313 19.3 35.8307 19.721 34.9984 20.5631C34.1661 21.4052 33.75 22.4175 33.75 23.6C33.75 24.7825 34.1661 25.7948 34.9984 26.6369C35.8307 27.479 36.8313 27.9 38 27.9ZM21 58V43.4338C21 42.2154 21.301 41.0956 21.9031 40.0744C22.5052 39.0531 23.3375 38.2558 24.4 37.6825C26.2063 36.7508 28.2516 35.9625 30.5359 35.3175C32.8203 34.6725 35.3083 34.35 38 34.35C40.6917 34.35 43.1797 34.6725 45.4641 35.3175C47.7484 35.9625 49.7938 36.7508 51.6 37.6825C52.6625 38.2558 53.4948 39.0531 54.0969 40.0744C54.699 41.0956 55 42.2154 55 43.4338V53.7C55 54.8825 54.5839 55.8948 53.7516 56.7369C52.9193 57.579 51.9188 58 50.75 58H33.2188C31.5896 58 30.2083 57.4267 29.075 56.28C27.9417 55.1333 27.375 53.7358 27.375 52.0875C27.375 50.4392 27.9417 49.0417 29.075 47.895C30.2083 46.7483 31.5896 46.175 33.2188 46.175H39.2219L42.5156 39.08C41.8073 38.9367 41.0813 38.8292 40.3375 38.7575C39.5938 38.6858 38.8146 38.65 38 38.65C35.45 38.65 33.1833 38.9635 31.2 39.5906C29.2167 40.2177 27.6052 40.8717 26.3656 41.5525C26.0115 41.7317 25.737 41.9915 25.5422 42.3319C25.3474 42.6723 25.25 43.0396 25.25 43.4338V58H21ZM33.2188 53.7H35.7688L37.2563 50.475H33.2188C32.7938 50.475 32.4219 50.6363 32.1031 50.9588C31.7844 51.2813 31.625 51.6575 31.625 52.0875C31.625 52.5175 31.7844 52.8938 32.1031 53.2163C32.4219 53.5388 32.7938 53.7 33.2188 53.7ZM40.4438 53.7H50.75V43.4338C50.75 43.0396 50.6526 42.6723 50.4578 42.3319C50.263 41.9915 50.0063 41.7317 49.6875 41.5525C49.2625 41.3375 48.8021 41.1135 48.3063 40.8806C47.8104 40.6477 47.2792 40.4238 46.7125 40.2088L40.4438 53.7Z" fill="white"/>
</svg>
