<svg width="76" height="76" viewBox="0 0 76 76" fill="none" xmlns="http://www.w3.org/2000/svg">
<rect width="76" height="76" rx="38" fill="#293495" fill-opacity="0.88"/>
<path d="M38 52.4583C37 52.4583 36.1439 52.1075 35.4318 51.4057C34.7197 50.704 34.3636 49.8604 34.3636 48.875C34.3636 47.8896 34.7197 47.046 35.4318 46.3443C36.1439 45.6425 37 45.2917 38 45.2917C39 45.2917 39.8561 45.6425 40.5682 46.3443C41.2803 47.046 41.6364 47.8896 41.6364 48.875C41.6364 49.8604 41.2803 50.704 40.5682 51.4057C39.8561 52.1075 39 52.4583 38 52.4583ZM32.5455 65V58.55C29.9697 57.684 28.1136 56.2134 26.9773 54.138C25.8409 52.0627 25.2727 49.7111 25.2727 47.0833H28.9091C28.9091 50.0993 29.6818 52.3464 31.2273 53.8245C32.7727 55.3026 35.0303 56.0417 38 56.0417C40.9697 56.0417 43.2273 55.3026 44.7727 53.8245C46.3182 52.3464 47.0909 50.0993 47.0909 47.0833H50.7273C50.7273 49.7111 50.1591 52.0627 49.0227 54.138C47.8864 56.2134 46.0303 57.684 43.4545 58.55V65H32.5455ZM25.2727 45.2917L21.6364 36.8708C21.4848 36.9604 21.2273 37.1172 20.8636 37.3411C20.5 37.5651 20.1515 37.6771 19.8182 37.6771C19.303 37.6771 18.8712 37.5054 18.5227 37.162C18.1742 36.8186 18 36.3931 18 35.8854V29.6146C18 27.4944 19.9545 25.6953 23.8636 24.2172C27.7727 22.7391 32.4848 22 38 22C43.5152 22 48.2273 22.7391 52.1364 24.2172C56.0455 25.6953 58 27.4944 58 29.6146V35.8854C58 36.3931 57.8258 36.8186 57.4773 37.162C57.1288 37.5054 56.697 37.6771 56.1818 37.6771C55.8485 37.6771 55.5 37.5651 55.1364 37.3411C54.7727 37.1172 54.5152 36.9604 54.3636 36.8708L50.7273 45.2917H47.0909L44.3636 34.049C43.3636 33.8997 42.3333 33.7951 41.2727 33.7354C40.2121 33.6757 39.1212 33.6458 38 33.6458C36.8788 33.6458 35.7879 33.6757 34.7273 33.7354C33.6667 33.7951 32.6364 33.8997 31.6364 34.049L28.9091 45.2917H25.2727ZM26.8636 42.1563L28.7273 34.4969C27.8788 34.676 27.0758 34.8701 26.3182 35.0792C25.5606 35.2882 24.8333 35.5271 24.1364 35.7958L26.8636 42.1563ZM49.1364 42.1115L51.8636 35.7958C51.1667 35.5271 50.4394 35.2882 49.6818 35.0792C48.9242 34.8701 48.1212 34.676 47.2727 34.4969L49.1364 42.1115ZM21.6364 32.8844C23.7879 31.9885 26.2652 31.2943 29.0682 30.8016C31.8712 30.3089 34.8485 30.0625 38 30.0625C41.1515 30.0625 44.1288 30.3089 46.9318 30.8016C49.7348 31.2943 52.2121 31.9885 54.3636 32.8844V29.7042C54.2121 29.4056 53.75 29.0248 52.9773 28.562C52.2045 28.0991 51.1288 27.6437 49.75 27.1958C48.3712 26.7479 46.7045 26.3672 44.75 26.0536C42.7955 25.7401 40.5455 25.5833 38 25.5833C35.4545 25.5833 33.2045 25.7401 31.25 26.0536C29.2955 26.3672 27.6288 26.7479 26.25 27.1958C24.8712 27.6437 23.7955 28.0991 23.0227 28.562C22.25 29.0248 21.7879 29.4056 21.6364 29.7042V32.8844Z" fill="white"/>
</svg>
