<svg width="76" height="76" viewBox="0 0 76 76" fill="none" xmlns="http://www.w3.org/2000/svg">
<rect width="76" height="76" rx="38" fill="#293495" fill-opacity="0.88"/>
<path d="M25.2604 51.227L17.3637 46.9023L19.9548 44.3075L26.1241 45.1724L35.7482 35.5345L16.5 25.0316L19.9548 21.5718L43.5215 27.6264L53.2073 18.0503C53.9065 17.3501 54.7805 17 55.8293 17C56.878 17 57.752 17.3501 58.4512 18.0503C59.1504 18.7505 59.5 19.6257 59.5 20.676C59.5 21.7263 59.1504 22.6015 58.4512 23.3017L48.8271 32.9397L54.873 56.5402L51.4182 60L40.9304 40.7241L31.3063 50.3621L32.17 56.5402L29.5789 59.1351L25.2604 51.227Z" fill="white"/>
</svg>
